<?xml version="1.0" standalone="no"?>
<!DOCTYPE svg PUBLIC "-//W3C//DTD SVG 20010904//EN"
 "http://www.w3.org/TR/2001/REC-SVG-20010904/DTD/svg10.dtd">
<svg version="1.0" xmlns="http://www.w3.org/2000/svg"
 width="1172.000000pt" height="1172.000000pt" viewBox="0 0 1172.000000 1172.000000"
 preserveAspectRatio="xMidYMid meet">
<metadata>
Created by potrace 1.11, written by Peter Selinger 2001-2013
</metadata>
<g transform="translate(0.000000,1172.000000) scale(0.100000,-0.100000)"
fill="#000000" stroke="none">
<path d="M5777 10063 c-1 0 -65 -4 -142 -8 -77 -4 -153 -9 -170 -10 -16 -2
-52 -6 -80 -9 -63 -7 -144 -17 -170 -22 -10 -2 -37 -6 -60 -10 -32 -4 -176
-33 -245 -49 -356 -80 -758 -234 -1089 -417 -268 -148 -610 -395 -802 -578
-14 -14 -39 -37 -55 -51 -16 -14 -79 -77 -139 -140 -605 -626 -1008 -1448
-1130 -2304 -23 -155 -42 -375 -44 -492 l-1 -43 -822 -2 -823 -3 0 -70 0 -70
823 -3 822 -2 1 -43 c4 -133 22 -365 34 -427 2 -14 7 -45 10 -70 5 -39 16
-104 32 -190 94 -515 319 -1064 626 -1525 77 -115 231 -322 279 -375 13 -14
48 -55 78 -90 121 -142 346 -356 515 -491 322 -257 688 -472 1055 -620 262
-105 587 -198 850 -243 14 -2 41 -7 60 -10 74 -13 97 -16 165 -22 38 -4 73 -8
76 -10 13 -7 275 -18 439 -18 159 0 359 9 421 19 13 2 49 6 79 9 119 13 150
18 295 47 497 98 885 247 1368 524 44 25 180 115 254 167 455 322 851 742
1151 1221 34 54 62 100 62 102 0 2 14 28 31 57 105 177 240 482 322 728 61
181 127 435 143 545 2 16 10 65 18 110 8 44 17 105 21 135 4 30 8 66 10 80 8
60 18 204 25 377 0 10 175 13 823 15 l822 3 0 70 0 70 -819 3 c-451 1 -821 3
-822 5 -1 1 -5 52 -8 113 -3 61 -8 131 -11 155 -24 246 -22 224 -56 419 -11
63 -27 142 -35 175 -9 33 -17 67 -19 75 -12 60 -51 196 -86 301 -176 530 -476
1054 -833 1459 -82 92 -364 368 -451 441 -372 309 -789 557 -1199 710 -44 17
-99 37 -121 46 -178 68 -545 158 -770 189 -16 3 -40 7 -52 9 -11 3 -54 8 -95
11 -40 3 -75 7 -78 9 -11 7 -477 24 -483 18z m328 -158 c116 -5 149 -8 245
-21 25 -3 61 -8 80 -10 30 -4 141 -22 235 -40 17 -2 94 -21 172 -40 436 -106
889 -305 1268 -557 80 -54 272 -193 285 -207 3 -3 46 -39 95 -80 123 -101 382
-362 490 -493 355 -430 621 -923 774 -1437 55 -184 58 -208 19 -119 -256 569
-678 1010 -1234 1288 -142 71 -332 144 -459 177 -84 22 -251 57 -312 65 -129
18 -140 19 -343 23 -224 4 -344 -6 -545 -45 -333 -65 -659 -199 -941 -389
l-75 -50 -89 60 c-283 190 -704 354 -1015 396 -27 3 -59 8 -70 10 -128 25
-532 24 -700 -1 -16 -3 -46 -7 -65 -10 -334 -48 -711 -196 -1021 -401 -410
-270 -764 -693 -949 -1132 -13 -29 -24 -51 -26 -49 -6 6 74 271 121 400 257
710 703 1322 1325 1818 325 259 789 506 1221 650 110 37 388 111 460 123 19 3
45 8 59 10 76 14 150 26 190 31 165 21 221 26 350 32 80 3 146 6 147 8 4 2
165 -2 308 -10z m-1495 -1608 c14 -3 48 -8 75 -12 220 -27 530 -122 735 -225
131 -66 310 -174 310 -188 0 -4 -19 -20 -41 -37 -61 -45 -265 -257 -351 -365
-150 -187 -290 -430 -381 -660 -77 -194 -143 -454 -163 -640 -3 -30 -7 -68 -9
-85 -2 -16 -4 -58 -4 -92 l-1 -63 -1450 0 -1449 0 4 43 c2 23 6 76 10 117 3
41 10 100 15 130 5 30 12 71 15 90 3 19 15 73 26 120 223 930 982 1654 1922
1835 70 13 164 27 210 31 45 3 84 8 86 10 6 6 410 -3 441 -9z m3035 -2 c164
-20 190 -24 317 -56 372 -93 683 -248 976 -488 270 -223 473 -474 632 -786 81
-161 88 -178 144 -345 60 -182 99 -370 112 -540 3 -41 7 -92 9 -112 l4 -38
-147 0 c-804 -2 -2745 0 -2747 2 -1 2 -5 50 -9 108 -8 135 -10 154 -42 327
-36 196 -128 463 -227 658 -154 304 -351 555 -636 812 l-44 40 59 38 c109 70
268 155 378 201 60 25 114 47 120 48 6 1 16 4 21 8 11 6 180 56 211 62 10 2
37 9 59 15 22 5 56 13 75 16 19 3 49 8 65 11 177 32 484 41 670 19z m-1690
-593 c482 -421 782 -1015 830 -1642 4 -41 8 -87 10 -102 l3 -28 -544 -1 c-299
0 -672 0 -829 0 -552 0 -506 -2 -501 24 3 12 8 60 10 107 6 91 9 109 32 240
96 537 375 1029 794 1396 52 46 97 84 100 84 3 0 46 -35 95 -78z m-1176 -1944
c-2 -28 10 -195 15 -224 2 -12 7 -45 11 -75 3 -30 8 -61 10 -69 2 -8 7 -31 10
-50 19 -115 91 -349 152 -495 65 -157 179 -361 281 -504 109 -154 300 -363
425 -465 26 -21 47 -41 47 -45 0 -3 -12 -13 -28 -23 -15 -9 -54 -33 -87 -53
-233 -145 -528 -261 -790 -311 -11 -2 -31 -6 -45 -9 -24 -5 -48 -8 -120 -19
-162 -23 -495 -24 -635 -1 -48 8 -87 14 -130 21 -22 3 -99 21 -171 39 -677
173 -1265 647 -1578 1272 -73 146 -163 378 -180 467 -3 12 -14 59 -25 106 -11
47 -23 108 -27 135 -3 28 -8 59 -10 70 -4 20 -12 112 -18 208 l-3 47 1448 0
1449 0 -1 -22z m2015 -8 c-6 -99 -15 -212 -19 -223 -2 -6 -6 -30 -9 -52 -11
-86 -36 -200 -69 -310 -11 -38 -21 -75 -23 -80 -1 -6 -23 -64 -48 -130 -141
-362 -380 -699 -678 -958 -43 -37 -83 -67 -89 -67 -15 0 -133 104 -233 205
-203 206 -398 496 -507 755 -71 170 -140 411 -164 576 -4 22 -8 50 -11 64 -2
14 -7 66 -10 115 -4 50 -8 97 -9 105 -1 8 -1 18 1 21 2 3 423 5 936 5 l933 -1
-1 -25z m3038 -45 c-5 -139 -45 -385 -82 -505 -6 -19 -13 -46 -16 -59 -18 -89
-152 -393 -234 -531 -246 -415 -609 -752 -1035 -960 -261 -128 -433 -180 -775
-235 -53 -9 -189 -17 -285 -18 -96 -1 -324 11 -335 18 -3 1 -28 5 -57 9 -183
22 -467 107 -672 202 -101 47 -351 193 -351 204 0 4 21 25 47 46 75 61 244
233 309 315 32 41 64 79 70 85 24 26 165 244 206 319 144 264 268 633 293 870
4 33 8 62 10 65 5 8 18 188 16 221 l-1 26 1447 -1 1448 -1 -3 -70z m-7826
-1010 c70 -145 236 -407 294 -465 3 -3 29 -34 59 -70 311 -375 803 -687 1287
-819 123 -33 297 -67 394 -76 36 -4 81 -9 100 -11 52 -6 334 -5 415 2 61 5
103 10 230 29 300 45 709 206 973 383 51 34 98 62 103 62 5 0 31 -15 57 -33
255 -176 631 -338 909 -392 104 -20 198 -34 258 -40 39 -4 81 -8 95 -11 32 -5
366 -6 405 0 17 2 59 7 95 11 36 4 74 9 85 11 11 2 38 7 59 9 183 25 542 141
712 231 154 82 209 114 299 175 205 139 424 339 560 509 33 41 63 77 66 80 3
3 45 64 92 137 88 133 174 290 217 395 13 32 25 56 27 55 7 -8 -76 -285 -118
-397 -139 -362 -269 -616 -458 -895 -206 -306 -452 -576 -777 -855 -186 -161
-535 -386 -794 -512 -258 -127 -609 -254 -830 -302 -142 -31 -263 -55 -300
-61 -25 -3 -52 -8 -60 -10 -8 -2 -44 -7 -80 -10 -36 -4 -73 -9 -84 -11 -130
-25 -709 -24 -876 1 -14 2 -50 6 -80 10 -47 5 -105 14 -185 29 -11 2 -36 6
-55 10 -19 3 -46 9 -60 12 -14 3 -38 8 -55 11 -152 27 -518 143 -690 218 -16
7 -52 23 -80 35 -694 304 -1318 832 -1741 1475 -91 139 -87 132 -155 250 -58
102 -164 318 -204 415 -80 195 -165 451 -188 565 -6 29 -6 29 5 5 6 -14 40
-83 74 -155z"/>
</g>
</svg>
